<svg xmlns="http://www.w3.org/2000/svg" data-guides="{&quot;vertical&quot;:[],&quot;horizontal&quot;:[]}" viewBox="378.47 364.82 128.78 78.98">   <defs></defs>   <path fill="#5400f6" stroke="#5400f6" fill-opacity="1" stroke-width="0" stroke-opacity="1" alignment-baseline="" baseline-shift="" font-variant="none" font-weight="300" stroke-miterlimit="2" text-anchor="middle" id="tSvg171afbb7315" stroke-linejoin="miter" title="Path 1" d="M388.0844 400.686C391.0544 402.36 394.4024 403.17 398.1284 403.17C401.8004 403.17 405.1484 402.36 408.1724 400.686C411.1424 399.066 413.4644 396.744 415.1924 393.828C416.9204 390.912 417.7844 387.672 417.7844 384C417.7844 380.382 416.9204 377.088 415.1924 374.172C413.4644 371.256 411.1424 368.988 408.1724 367.314C405.1484 365.694 401.8004 364.83 398.1284 364.83C394.4024 364.83 391.0544 365.694 388.0844 367.368C385.0604 369.042 382.7384 371.31 381.0104 374.226C379.2824 377.142 378.4724 380.436 378.4724 384C378.4724 387.618 379.2824 390.858 381.0104 393.774C382.7384 396.69 385.0604 399.012 388.0844 400.686ZM406.7144 398.472C404.1224 399.93 401.2604 400.632 398.1284 400.632C394.9424 400.632 392.0804 399.93 389.4884 398.472C386.8964 397.068 384.8984 395.07 383.4404 392.532C381.9284 389.994 381.2264 387.132 381.2264 384C381.2264 380.868 381.9284 378.06 383.4404 375.522C384.8984 372.984 386.8964 370.986 389.4884 369.528C392.0804 368.124 394.9424 367.368 398.1284 367.368C401.2604 367.368 404.1224 368.124 406.7144 369.528C409.2524 370.986 411.2504 372.984 412.7624 375.522C414.2204 378.06 414.9764 380.868 414.9764 384C414.9764 387.132 414.2204 389.994 412.7624 392.532C411.2504 395.07 409.2524 397.068 406.7144 398.472Z"></path>   <path fill="#5400f6" stroke="#5400f6" fill-opacity="1" stroke-width="0" stroke-opacity="1" alignment-baseline="" baseline-shift="" font-variant="none" font-weight="300" stroke-miterlimit="2" text-anchor="middle" id="tSvg1d4858871b" stroke-linejoin="miter" title="Path 5" d="M405.3964 400.686C408.3664 402.36 411.7144 403.17 415.4404 403.17C419.1124 403.17 422.4604 402.36 425.4844 400.686C428.4544 399.066 430.7764 396.744 432.5044 393.828C434.2324 390.912 435.0964 387.672 435.0964 384C435.0964 380.382 434.2324 377.088 432.5044 374.172C430.7764 371.256 428.4544 368.988 425.4844 367.314C422.4604 365.694 419.1124 364.83 415.4404 364.83C411.7144 364.83 408.3664 365.694 405.3964 367.368C402.3724 369.042 400.0504 371.31 398.3224 374.226C396.5944 377.142 395.7844 380.436 395.7844 384C395.7844 387.618 396.5944 390.858 398.3224 393.774C400.0504 396.69 402.3724 399.012 405.3964 400.686ZM424.0264 398.472C421.4344 399.93 418.5724 400.632 415.4404 400.632C412.2544 400.632 409.3924 399.93 406.8004 398.472C404.2084 397.068 402.2104 395.07 400.7524 392.532C399.2404 389.994 398.5384 387.132 398.5384 384C398.5384 380.868 399.2404 378.06 400.7524 375.522C402.2104 372.984 404.2084 370.986 406.8004 369.528C409.3924 368.124 412.2544 367.368 415.4404 367.368C418.5724 367.368 421.4344 368.124 424.0264 369.528C426.5644 370.986 428.5624 372.984 430.0744 375.522C431.5324 378.06 432.2884 380.868 432.2884 384C432.2884 387.132 431.5324 389.994 430.0744 392.532C428.5624 395.07 426.5644 397.068 424.0264 398.472Z"></path>   <path fill="#5400f6" stroke="#5400f6" fill-opacity="1" stroke-width="0" stroke-opacity="1" alignment-baseline="" baseline-shift="" font-variant="none" font-weight="300" stroke-miterlimit="2" text-anchor="middle" id="tSvg12b8a5ca73e" stroke-linejoin="miter" title="Path 6" d="M469.3805 368.502C466.6805 366.234 462.9545 365.1 458.2025 365.1C453.6845 365.1 449.1665 365.1 444.6485 365.1C444.6485 365.928 444.6485 366.756 444.6485 367.584C449.1665 367.584 453.6845 367.584 458.2025 367.584C462.1985 367.584 465.2765 368.502 467.4365 370.284C469.5425 372.066 470.6225 374.604 470.6225 377.844C470.6225 381.138 469.5425 383.676 467.4365 385.404C465.2765 387.186 462.1985 388.05 458.2025 388.05C453.6845 388.05 449.1665 388.05 444.6485 388.05C444.6485 393 444.6485 397.95 444.6485 402.9C445.5665 402.9 446.4845 402.9 447.4025 402.9C447.4025 398.778 447.4025 394.656 447.4025 390.534C451.0025 390.534 454.6025 390.534 458.2025 390.534C462.9545 390.534 466.6805 389.454 469.3805 387.186C472.0805 384.918 473.4305 381.84 473.4305 377.844C473.4305 373.902 472.0805 370.77 469.3805 368.502Z"></path>   <path fill="#5400f6" stroke="#5400f6" fill-opacity="1" stroke-width="0" stroke-opacity="1" alignment-baseline="" baseline-shift="" font-variant="none" font-weight="300" stroke-miterlimit="2" text-anchor="middle" id="tSvgcd4e271b26" stroke-linejoin="miter" title="Path 7" d="M482.7227 365.1C482.7227 377.7 482.7227 390.3 482.7227 402.9C490.8947 402.9 499.0667 402.9 507.2387 402.9C507.2387 402.072 507.2387 401.244 507.2387 400.416C499.9847 400.416 492.7307 400.416 485.4767 400.416C485.4767 388.644 485.4767 376.872 485.4767 365.1C484.5587 365.1 483.6407 365.1 482.7227 365.1"></path>   <path fill="#4c7edc" stroke="#4c7edc" fill-opacity="1" stroke-width="0" stroke-opacity="1" alignment-baseline="" baseline-shift="" font-variant="none" font-weight="300" stroke-miterlimit="2" text-anchor="middle" id="tSvgd50f8ac7e4" stroke-linejoin="miter" title="Path 8" d="M409.3923 408.4839C409.3923 420.2559 409.3923 432.0279 409.3923 443.7999C410.3103 443.7999 411.2283 443.7999 412.1463 443.7999C412.1463 432.0279 412.1463 420.2559 412.1463 408.4839C416.6823 408.4839 421.2183 408.4839 425.7543 408.4839C425.7543 407.6559 425.7543 406.8279 425.7543 405.9999C415.7643 405.9999 405.7743 405.9999 395.7843 405.9999C395.7843 406.8279 395.7843 407.6559 395.7843 408.4839C400.3203 408.4839 404.8563 408.4839 409.3923 408.4839"></path>   <path fill="#4c7edc" stroke="#4c7edc" fill-opacity="1" stroke-width="0" stroke-opacity="1" alignment-baseline="" baseline-shift="" font-variant="none" font-weight="300" stroke-miterlimit="2" text-anchor="middle" id="tSvgaf2ee91c3a" stroke-linejoin="miter" title="Path 12" d="M454.3745 427.4919C452.9705 425.8719 450.9185 424.8459 448.2185 424.3059C450.1085 423.7119 451.6745 422.6319 452.8085 421.1199C453.9425 419.6619 454.5365 417.8799 454.5365 415.6659C454.5365 412.5879 453.3485 410.2119 451.0805 408.5379C448.8125 406.8639 445.6265 405.9999 441.5225 405.9999C436.2665 405.9999 431.0105 405.9999 425.7545 405.9999C425.7545 406.7919 425.7545 407.5839 425.7545 408.3759C430.9745 408.3759 436.1945 408.3759 441.4145 408.3759C444.7085 408.3759 447.2465 409.0239 449.0285 410.3199C450.8105 411.6159 451.7285 413.4519 451.7285 415.8819C451.7285 418.3659 450.8105 420.2559 449.0285 421.5519C447.2465 422.8479 444.7085 423.4419 441.4145 423.4419C436.1945 423.4419 430.9745 423.4419 425.7545 423.4419C425.7545 424.2339 425.7545 425.0259 425.7545 425.8179C431.3705 425.8179 436.9865 425.8179 442.6025 425.8179C446.2205 425.8179 449.0285 426.4659 450.9185 427.7079C452.8085 429.0039 453.7805 430.9479 453.7805 433.5939C453.7805 436.2939 452.8085 438.2379 450.9185 439.5339C449.0285 440.8299 446.2745 441.4239 442.6025 441.4239C436.9865 441.4239 431.3705 441.4239 425.7545 441.4239C425.7545 442.2159 425.7545 443.0079 425.7545 443.7999C431.3705 443.7999 436.9865 443.7999 442.6025 443.7999C447.1925 443.7999 450.6485 442.9359 453.0245 441.2079C455.3465 439.4799 456.5345 437.0499 456.5345 433.8099C456.5345 431.2719 455.7785 429.1659 454.3745 427.4919Z" style=""></path>   <path fill="#4c7edc" stroke="#4c7edc" fill-opacity="1" stroke-width="0" stroke-opacity="1" alignment-baseline="" baseline-shift="" font-variant="none" font-weight="300" stroke-miterlimit="2" text-anchor="middle" id="tSvgc376798765" stroke-linejoin="miter" title="Path 14" d="M484.7488 443.7999C485.8288 443.7999 486.9088 443.7999 487.9888 443.7999C483.1468 437.2839 478.3048 430.7679 473.4628 424.2519C477.9628 418.1679 482.4628 412.0839 486.9628 405.9999C485.9368 405.9999 484.9108 405.9999 483.8848 405.9999C479.8708 411.4179 475.8568 416.8359 471.8428 422.2539C467.8288 416.8359 463.8148 411.4179 459.8008 405.9999C458.7208 405.9999 457.6408 405.9999 456.5608 405.9999C461.0608 412.1019 465.5608 418.2039 470.0608 424.3059C465.2188 430.8039 460.3768 437.3019 455.5348 443.7999C456.6148 443.7999 457.6948 443.7999 458.7748 443.7999C463.0948 437.9679 467.4148 432.1359 471.7348 426.3039C476.0728 432.1359 480.4108 437.9679 484.7488 443.7999"></path> </svg>